<svg xmlns="http://www.w3.org/2000/svg" viewBox="0 0 32 32">
  <defs>
    <linearGradient id="g" x1="0" y1="0" x2="1" y2="1">
      <stop offset="0%" stop-color="#6366f1"/>
      <stop offset="100%" stop-color="#8b5cf6"/>
    </linearGradient>
  </defs>
  <rect width="32" height="32" rx="6" fill="url(#g)"/>
  <path d="M16 6 C10 6 6 10 6 16 C6 20 8 23 11 25 L11 22 C11 20 12 18 14 17 C12 17 10 15 10 12 C10 9 13 7 16 7 C19 7 22 9 22 12 C22 15 20 17 18 17 C20 18 21 20 21 22 L21 25 C24 23 26 20 26 16 C26 10 22 6 16 6Z" fill="white"/>
</svg>